<svg width="132" height="99" viewBox="0 0 132 99" fill="none" xmlns="http://www.w3.org/2000/svg">
<g filter="url(#filter0_dd_1104_21878)">
<rect x="7.5" y="3" width="117.6" height="84" rx="9.14286" fill="#249F58"/>
<path fill-rule="evenodd" clip-rule="evenodd" d="M66.2998 14.1992L108.3 44.9992L66.2998 75.7992L24.2998 44.9992" fill="#FFDA2C"/>
<path d="M66.2999 64.5993C77.1247 64.5993 85.8999 55.8241 85.8999 44.9993C85.8999 34.1745 77.1247 25.3993 66.2999 25.3993C55.4751 25.3993 46.6999 34.1745 46.6999 44.9993C46.6999 55.8241 55.4751 64.5993 66.2999 64.5993Z" fill="#1A47B8"/>
<path fill-rule="evenodd" clip-rule="evenodd" d="M57.8997 53.3993V58.9993H63.4997V53.3993H57.8997ZM69.0997 53.3993V58.9993H74.6997V53.3993H69.0997Z" fill="white"/>
<path fill-rule="evenodd" clip-rule="evenodd" d="M51.8123 39.3566C51.8123 39.3566 51.8127 39.3566 52.2998 36.5993C52.787 33.842 52.7876 33.8421 52.7876 33.8421L52.8 33.8444L52.8313 33.85C52.8582 33.8548 52.897 33.8618 52.9473 33.871C53.0478 33.8893 53.1942 33.9164 53.3823 33.9519C53.7586 34.023 54.3025 34.1283 54.9822 34.2667C56.3408 34.5433 58.2463 34.953 60.443 35.4872C64.8081 36.5487 70.4374 38.1289 75.2185 40.1737L87.0031 45.2259L84.7965 50.3728L73.0163 45.3226L73.0151 45.322C68.6572 43.4583 63.3783 41.9642 59.1198 40.9286C57.0045 40.4142 55.1692 40.0197 53.865 39.7541C53.2133 39.6214 52.6953 39.5212 52.3425 39.4545C52.1662 39.4212 52.0312 39.3963 51.9415 39.3799C51.8967 39.3717 51.8632 39.3657 51.8416 39.3618L51.8181 39.3576L51.8123 39.3566Z" fill="white"/>
</g>
<defs>
<filter id="filter0_dd_1104_21878" x="0.642857" y="0.714285" width="131.314" height="97.7143" filterUnits="userSpaceOnUse" color-interpolation-filters="sRGB">
<feFlood flood-opacity="0" result="BackgroundImageFix"/>
<feColorMatrix in="SourceAlpha" type="matrix" values="0 0 0 0 0 0 0 0 0 0 0 0 0 0 0 0 0 0 127 0" result="hardAlpha"/>
<feOffset dy="4.57143"/>
<feGaussianBlur stdDeviation="3.42857"/>
<feComposite in2="hardAlpha" operator="out"/>
<feColorMatrix type="matrix" values="0 0 0 0 0.258824 0 0 0 0 0.278431 0 0 0 0 0.298039 0 0 0 0.08 0"/>
<feBlend mode="normal" in2="BackgroundImageFix" result="effect1_dropShadow_1104_21878"/>
<feColorMatrix in="SourceAlpha" type="matrix" values="0 0 0 0 0 0 0 0 0 0 0 0 0 0 0 0 0 0 127 0" result="hardAlpha"/>
<feOffset/>
<feGaussianBlur stdDeviation="0.285714"/>
<feComposite in2="hardAlpha" operator="out"/>
<feColorMatrix type="matrix" values="0 0 0 0 0.258824 0 0 0 0 0.278431 0 0 0 0 0.298039 0 0 0 0.32 0"/>
<feBlend mode="normal" in2="effect1_dropShadow_1104_21878" result="effect2_dropShadow_1104_21878"/>
<feBlend mode="normal" in="SourceGraphic" in2="effect2_dropShadow_1104_21878" result="shape"/>
</filter>
</defs>
</svg>
