<svg width="24" height="25" viewBox="0 0 24 25" fill="none" xmlns="http://www.w3.org/2000/svg">
<path d="M12 2.80469C6.48603 2.80469 2 7.29072 2 12.8047C2 18.3187 6.48603 22.8047 12 22.8047C17.514 22.8047 22 18.3187 22 12.8047C22 7.29072 17.514 2.80469 12 2.80469ZM12 4.30469C13.5859 4.30469 15.0631 4.74456 16.332 5.49707C16.2843 5.54679 16.2453 5.60684 16.2207 5.67676L16.1211 5.95996C16.0486 6.16546 16.1185 6.39439 16.293 6.52539L16.4668 6.65527C16.7333 6.85527 16.7333 7.25508 16.4668 7.45508L16.2471 7.62012C16.0956 7.73362 15.8931 7.75149 15.7236 7.66699L15.1055 7.35742C15.036 7.32242 14.9593 7.30469 14.8818 7.30469H13.6533C13.5073 7.30469 13.3689 7.36899 13.2734 7.47949L12.1191 8.82422C11.9981 8.96522 11.9662 9.16294 12.0352 9.33594L12.1406 9.60059C12.2741 9.93409 12.705 10.0226 12.959 9.76855C12.959 9.76855 13.2812 9.61972 13.3887 9.13672C13.4332 8.93722 13.6226 8.80469 13.8271 8.80469H14.2998C14.4288 8.80469 14.552 8.85436 14.6445 8.94336L14.8916 9.17871C15.0946 9.37271 15.0989 9.69603 14.9004 9.89453L14.5137 10.2803C14.4677 10.3263 14.413 10.3637 14.3525 10.3887L12.8145 11.0283C12.772 11.0458 12.7313 11.0692 12.6953 11.0977L11.3076 12.1963C11.2191 12.2663 11.1096 12.3047 10.9971 12.3047H10.75C10.336 12.3047 10 12.6407 10 13.0547C10 13.4687 10.336 13.8047 10.75 13.8047H10.8662C11.0657 13.8047 11.2616 13.75 11.4316 13.6455L12.4482 13.0244C12.6557 12.8974 12.9245 12.9386 13.085 13.1221L13.5322 13.6338C13.6272 13.7423 13.7647 13.8047 13.9092 13.8047H14C14.276 13.8047 14.5 13.5807 14.5 13.3047V13.002C14.5 12.8755 14.5478 12.7531 14.6338 12.6611L15.2051 12.0479C15.2426 12.0074 15.2865 11.9733 15.335 11.9473L16.2637 11.4492C16.5972 11.2707 17 11.5126 17 11.8906V12.3047C17 12.5807 16.776 12.8047 16.5 12.8047H16C15.724 12.8047 15.5 13.0287 15.5 13.3047C15.5 13.5807 15.724 13.8047 16 13.8047H16.7344C16.9004 13.8047 17.0554 13.8874 17.1484 14.0254L18.2314 15.6279C18.3949 15.8699 18.73 15.9208 18.958 15.7383L19.3125 15.4551C19.431 15.3601 19.5 15.2165 19.5 15.0645V14.8047C19.5 14.5287 19.276 14.3047 19 14.3047C18.724 14.3047 18.5 14.0807 18.5 13.8047C18.5 13.5287 18.724 13.3047 19 13.3047H19.1797C19.2262 13.3047 19.2724 13.2981 19.3174 13.2861L20.4922 12.9502C20.4576 14.9987 19.7053 16.8661 18.4717 18.3145C18.4894 18.2602 18.5 18.2033 18.5 18.1455V17.8477C18.5 17.5477 18.257 17.3047 17.957 17.3047C17.774 17.3047 17.6039 17.2126 17.5029 17.0596L16.4043 15.0938C16.2538 14.8633 15.9545 14.7828 15.708 14.9053L14.5537 15.5381C14.4257 15.6021 14.2766 15.6124 14.1406 15.5674L12.2744 14.8916C11.9404 14.7806 11.5796 14.7806 11.2461 14.8916L9.5498 15.5674C9.4133 15.6124 9.29985 15.7104 9.23535 15.8389L8.61133 17.083C8.54033 17.224 8.53473 17.3877 8.59473 17.5332L9.18945 18.9688C9.27345 19.1717 9.47093 19.3047 9.69043 19.3047H10.7285C10.8995 19.3047 11.0606 19.2239 11.1631 19.0879L11.3164 18.8838C11.5334 18.5943 11.9676 18.5943 12.1846 18.8838L12.3916 19.1602C12.4621 19.2537 12.5 19.3679 12.5 19.4854V21.2793C12.3336 21.289 12.1689 21.3047 12 21.3047C7.29669 21.3047 3.5 17.508 3.5 12.8047C3.5 12.1354 3.58504 11.4875 3.73047 10.8633L4.52441 10.4082C4.59141 10.3697 4.66616 10.3506 4.74316 10.3506H5.05859C5.30259 10.3506 5.50098 10.1522 5.50098 9.9082V8.33789C5.50098 8.09389 5.69838 7.89551 5.94238 7.89551C6.13338 7.89551 6.3028 7.7733 6.3623 7.5918L7.15723 5.81836C7.56095 5.53832 7.99166 5.2975 8.44238 5.08984L7.52832 7.08398C7.41082 7.43848 7.67435 7.80469 8.04785 7.80469H9.16602C9.41052 7.80469 9.64438 7.70816 9.81738 7.53516L10.8877 6.46484C10.9902 6.36234 11.0479 6.22363 11.0479 6.07812V5.85156C11.0479 5.55006 10.803 5.30469 10.501 5.30469H10.2744C10.1294 5.30469 9.98972 5.36234 9.88672 5.46484L9.54785 5.80469L9.54199 5.18652C9.54036 4.99667 9.44388 4.84087 9.30664 4.74512C10.1533 4.46328 11.0572 4.30469 12 4.30469ZM10.5 8.80469C10.224 8.80469 10 9.02869 10 9.30469V9.80469C10 10.0807 10.224 10.3047 10.5 10.3047C10.776 10.3047 11 10.0807 11 9.80469V9.30469C11 9.02869 10.776 8.80469 10.5 8.80469Z" fill="#112D4E"/>
</svg>
