<svg width="96" height="16" viewBox="0 0 96 16" fill="none" xmlns="http://www.w3.org/2000/svg">
<g clip-path="url(#clip0_4141_191)">
<path d="M11.7065 14C11.5999 14.0004 11.4947 13.9753 11.3998 13.9266L7.99984 12.1466L4.59984 13.9266C4.48944 13.9847 4.36496 14.0106 4.24056 14.0014C4.11616 13.9923 3.99683 13.9484 3.89613 13.8748C3.79543 13.8012 3.7174 13.7008 3.67092 13.585C3.62443 13.4693 3.61136 13.3428 3.63318 13.22L4.29984 9.46664L1.55318 6.79997C1.46748 6.71446 1.40669 6.60722 1.37733 6.48977C1.34796 6.37232 1.35114 6.24909 1.38651 6.13331C1.42515 6.01482 1.49623 5.90954 1.59168 5.82941C1.68712 5.74928 1.80312 5.69751 1.92651 5.67997L5.72651 5.12664L7.39984 1.70664C7.45443 1.59393 7.53967 1.49887 7.64578 1.43236C7.7519 1.36584 7.8746 1.33057 7.99984 1.33057C8.12508 1.33057 8.24779 1.36584 8.3539 1.43236C8.46002 1.49887 8.54525 1.59393 8.59984 1.70664L10.2932 5.11997L14.0932 5.67331C14.2166 5.69084 14.3326 5.74262 14.428 5.82275C14.5235 5.90288 14.5945 6.00816 14.6332 6.12664C14.6685 6.24242 14.6717 6.36565 14.6424 6.4831C14.613 6.60055 14.5522 6.70779 14.4665 6.79331L11.7198 9.45997L12.3865 13.2133C12.4103 13.3383 12.3978 13.4675 12.3506 13.5856C12.3033 13.7037 12.2233 13.8059 12.1198 13.88C11.9991 13.9646 11.8538 14.0068 11.7065 14Z" fill="#F95F5F"/>
</g>
<g clip-path="url(#clip1_4141_191)">
<path d="M31.7065 14C31.5999 14.0004 31.4947 13.9753 31.3998 13.9266L27.9998 12.1466L24.5998 13.9266C24.4894 13.9847 24.365 14.0106 24.2406 14.0014C24.1162 13.9923 23.9968 13.9484 23.8961 13.8748C23.7954 13.8012 23.7174 13.7008 23.6709 13.585C23.6244 13.4693 23.6114 13.3428 23.6332 13.22L24.2998 9.46664L21.5532 6.79997C21.4675 6.71446 21.4067 6.60722 21.3773 6.48977C21.348 6.37232 21.3511 6.24909 21.3865 6.13331C21.4251 6.01482 21.4962 5.90954 21.5917 5.82941C21.6871 5.74928 21.8031 5.69751 21.9265 5.67997L25.7265 5.12664L27.3998 1.70664C27.4544 1.59393 27.5397 1.49887 27.6458 1.43236C27.7519 1.36584 27.8746 1.33057 27.9998 1.33057C28.1251 1.33057 28.2478 1.36584 28.3539 1.43236C28.46 1.49887 28.5453 1.59393 28.5998 1.70664L30.2932 5.11997L34.0932 5.67331C34.2166 5.69084 34.3326 5.74262 34.428 5.82275C34.5235 5.90288 34.5945 6.00816 34.6332 6.12664C34.6685 6.24242 34.6717 6.36565 34.6424 6.4831C34.613 6.60055 34.5522 6.70779 34.4665 6.79331L31.7198 9.45997L32.3865 13.2133C32.4103 13.3383 32.3978 13.4675 32.3506 13.5856C32.3033 13.7037 32.2233 13.8059 32.1198 13.88C31.9991 13.9646 31.8538 14.0068 31.7065 14Z" fill="#F95F5F"/>
</g>
<g clip-path="url(#clip2_4141_191)">
<path d="M51.7065 14C51.5999 14.0004 51.4947 13.9753 51.3998 13.9266L47.9998 12.1466L44.5998 13.9266C44.4894 13.9847 44.365 14.0106 44.2406 14.0014C44.1162 13.9923 43.9968 13.9484 43.8961 13.8748C43.7954 13.8012 43.7174 13.7008 43.6709 13.585C43.6244 13.4693 43.6114 13.3428 43.6332 13.22L44.2998 9.46664L41.5532 6.79997C41.4675 6.71446 41.4067 6.60722 41.3773 6.48977C41.348 6.37232 41.3511 6.24909 41.3865 6.13331C41.4251 6.01482 41.4962 5.90954 41.5917 5.82941C41.6871 5.74928 41.8031 5.69751 41.9265 5.67997L45.7265 5.12664L47.3998 1.70664C47.4544 1.59393 47.5397 1.49887 47.6458 1.43236C47.7519 1.36584 47.8746 1.33057 47.9998 1.33057C48.1251 1.33057 48.2478 1.36584 48.3539 1.43236C48.46 1.49887 48.5453 1.59393 48.5998 1.70664L50.2932 5.11997L54.0932 5.67331C54.2166 5.69084 54.3326 5.74262 54.428 5.82275C54.5235 5.90288 54.5945 6.00816 54.6332 6.12664C54.6685 6.24242 54.6717 6.36565 54.6424 6.4831C54.613 6.60055 54.5522 6.70779 54.4665 6.79331L51.7198 9.45997L52.3865 13.2133C52.4103 13.3383 52.3978 13.4675 52.3506 13.5856C52.3033 13.7037 52.2233 13.8059 52.1198 13.88C51.9991 13.9646 51.8538 14.0068 51.7065 14Z" fill="#F95F5F"/>
</g>
<g clip-path="url(#clip3_4141_191)">
<path d="M71.7065 14C71.5999 14.0004 71.4947 13.9753 71.3998 13.9266L67.9998 12.1466L64.5998 13.9266C64.4894 13.9847 64.365 14.0106 64.2406 14.0014C64.1162 13.9923 63.9968 13.9484 63.8961 13.8748C63.7954 13.8012 63.7174 13.7008 63.6709 13.585C63.6244 13.4693 63.6114 13.3428 63.6332 13.22L64.2998 9.46664L61.5532 6.79997C61.4675 6.71446 61.4067 6.60722 61.3773 6.48977C61.348 6.37232 61.3511 6.24909 61.3865 6.13331C61.4251 6.01482 61.4962 5.90954 61.5917 5.82941C61.6871 5.74928 61.8031 5.69751 61.9265 5.67997L65.7265 5.12664L67.3998 1.70664C67.4544 1.59393 67.5397 1.49887 67.6458 1.43236C67.7519 1.36584 67.8746 1.33057 67.9998 1.33057C68.1251 1.33057 68.2478 1.36584 68.3539 1.43236C68.46 1.49887 68.5453 1.59393 68.5998 1.70664L70.2932 5.11997L74.0932 5.67331C74.2166 5.69084 74.3326 5.74262 74.428 5.82275C74.5235 5.90288 74.5945 6.00816 74.6332 6.12664C74.6685 6.24242 74.6717 6.36565 74.6424 6.4831C74.613 6.60055 74.5522 6.70779 74.4665 6.79331L71.7198 9.45997L72.3865 13.2133C72.4103 13.3383 72.3978 13.4675 72.3506 13.5856C72.3033 13.7037 72.2233 13.8059 72.1198 13.88C71.9991 13.9646 71.8538 14.0068 71.7065 14Z" fill="#F95F5F"/>
</g>
<g clip-path="url(#clip4_4141_191)">
<path d="M91.7065 14C91.5999 14.0004 91.4947 13.9753 91.3998 13.9266L87.9998 12.1466L84.5998 13.9266C84.4894 13.9847 84.365 14.0106 84.2406 14.0014C84.1162 13.9923 83.9968 13.9484 83.8961 13.8748C83.7954 13.8012 83.7174 13.7008 83.6709 13.585C83.6244 13.4693 83.6114 13.3428 83.6332 13.22L84.2998 9.46664L81.5532 6.79997C81.4675 6.71446 81.4067 6.60722 81.3773 6.48977C81.348 6.37232 81.3511 6.24909 81.3865 6.13331C81.4251 6.01482 81.4962 5.90954 81.5917 5.82941C81.6871 5.74928 81.8031 5.69751 81.9265 5.67997L85.7265 5.12664L87.3998 1.70664C87.4544 1.59393 87.5397 1.49887 87.6458 1.43236C87.7519 1.36584 87.8746 1.33057 87.9998 1.33057C88.1251 1.33057 88.2478 1.36584 88.3539 1.43236C88.46 1.49887 88.5453 1.59393 88.5998 1.70664L90.2932 5.11997L94.0932 5.67331C94.2166 5.69084 94.3326 5.74262 94.428 5.82275C94.5235 5.90288 94.5945 6.00816 94.6332 6.12664C94.6685 6.24242 94.6717 6.36565 94.6424 6.4831C94.613 6.60055 94.5522 6.70779 94.4665 6.79331L91.7198 9.45997L92.3865 13.2133C92.4103 13.3383 92.3978 13.4675 92.3506 13.5856C92.3033 13.7037 92.2233 13.8059 92.1198 13.88C91.9991 13.9646 91.8538 14.0068 91.7065 14Z" fill="#E5E5E5"/>
</g>
<defs>
<clipPath id="clip0_4141_191">
<rect width="16" height="16" fill="white"/>
</clipPath>
<clipPath id="clip1_4141_191">
<rect width="16" height="16" fill="white" transform="translate(20)"/>
</clipPath>
<clipPath id="clip2_4141_191">
<rect width="16" height="16" fill="white" transform="translate(40)"/>
</clipPath>
<clipPath id="clip3_4141_191">
<rect width="16" height="16" fill="white" transform="translate(60)"/>
</clipPath>
<clipPath id="clip4_4141_191">
<rect width="16" height="16" fill="white" transform="translate(80)"/>
</clipPath>
</defs>
</svg>
